<svg aria-hidden="true"  aria-labelledby="ghost-lars--CvK7t5bXMQ" role="img" fill="currentColor" xmlns="http://www.w3.org/2000/svg" viewBox="0 0 474 487"><desc id="ghost-lars--CvK7t5bXMQ">Ghost Lars</desc><path d="M382.2,191.3c-5.4-0.3-10.8,0.1-16.2,0c-2.4,0-5.2,0.3-7.5,0c2-15,2-27.7,0.2-40.6c-0.8-5.6-1.4-11.3-2.9-16.7c-1.4-5.2-3.3-6.1-8.8-5.8c-1.3,0.1-2.6,0.4-4.3,0.7c2.9-8,5.7-15.3,8.1-22.8c3.7-11.5,2.8-23.1-1.2-34.3 c-2.7-7.5-7.7-8.6-13.7-3.4c-1.9,1.7-3.7,3.5-5.4,5.5c-3.2,3.9-6.3,7.9-9.5,12c-26.2-25.6-56.4-27.6-87.5-13.6 c-37.7,16.9-54.8,46.8-48.3,89.4c-4.1,0-8.2,0.4-12.9,1c-7.8,1-13.5,2-21.1,4c-3.9,1-7.3,3.5-7.6,8.2c-0.3,4.3,2.8,6.6,6.1,8.5 c5.2,2.9,10.6,5.5,15.7,8.6c5.5,3.3,10.7,7.1,15.9,10.6c-5.5,18.7-10.8,36.4-24.5,49.3c-11.1,10.5-23,20.4-35.6,28.9 c-14.3,9.6-28.9,18.4-47,21c-6,0.9-7.2,4.8-5.5,9.6c1.3,3.9,3.5,7.8,6.1,11c9.9,12.3,23.1,20,37.4,25.9c5.5,2.3,10.2,2.5,15.5-0.6 c3.1-1.8,5.6-5.8,10.2-4.8c4.5,1,5.9,6.4,7.4,10.2c2.3,5.5,3.8,11.3,5.9,16.9c4.7,12.2,12.1,22.4,22.3,30.6 c10.8,8.7,21.9,6.8,27.6-4.9c0.2-0.5,0.6-1,0.9-1.4c6.9-10.6,19.4-14,29.8-2.1c6.1,7,13.4,13,20.5,19.2c8.6,7.6,19,11,30.4,11.9 c9,0.7,17.1-0.2,23.8-6.5c6.9-6.4,10.5-12.3,11.8-23.1c1.4-31.5,4.2-64,3.4-95.2c-0.1-4.3,1.5-6.7,5.1-8.7 c13.9-7.8,26.9-17,37.9-28.6c2.3-2.5,4.7-5,6.4-7.9c3-4.9,1.3-8.9-4-10.7c-2-0.6-4.1-0.9-6.7-1.4c7.1-8.2,13.8-15.4,20-23.2 c3.7-4.6,7-9.7,9.4-15.1C392.6,196.3,389.5,191.8,382.2,191.3z M340.2,81.4c2.9,10.3,1.1,19.5-3.2,29.8c-3.5-8.9-6.8-14.9-9.1-18.3 C329.7,91,334,86.6,340.2,81.4z M373.6,208.2c-9.7,10.7-19.4,21.4-29.5,31.9c-1.8,1.8-4.8,3.1-7.4,3.4c-28.8,3.2-57.7,5.4-86.7,2 c-3.6-0.4-7.4-0.5-11.1-0.4c-3.6,0.1-6.1,2-5.9,5.8c0.2,3.4,2.8,4.8,5.9,4.9c20.1,0.8,40.2,2.2,60.4,2.1 c14.1-0.1,28.3-2.3,42.4-3.4c2.6-0.2,5.2-0.4,8.2-0.5c1.9-0.1,3,2.2,1.8,3.6c-0.7,0.8-1.3,1.5-2,2.1c-17.4,15.5-37.7,26.2-59,35 c-12.5,5.1-25.4,9.4-38.1,14.3c-0.5,0.2-0.9,0.4-1.3,0.6c-2.8,1.4-5.1,3.4-3.9,7c1.2,3.7,4.4,4.1,7.7,3.2c2.2-0.6,4.3-1.4,6.4-2.2 c14.6-5.6,29.1-11.3,43.6-16.9c1.2-0.5,2.5-0.8,4.6-1.4c0.2,3.4,0.6,6.2,0.5,8.9c-1.4,29.2-2.3,51.8-4.9,82.1 c-1.1,12.8-10.8,22-19.5,21.8c-8.9-0.2-17.6-2.1-24.7-7.9c-5.8-4.8-11.4-9.9-17-14.9c-2.8-2.5-5.6-5.1-8.2-7.8 c-11.8-11.7-25.4-11.7-38,1.4c-2.4,2.4-4.4,5.3-6.9,7.5c-3.6,3-9,2.9-12.5-0.2c-7.9-6.8-13.7-15.2-17.3-24.9 c-2.2-5.8-3.9-11.9-6.4-17.6c-2.1-4.6-4.5-9.2-7.8-12.9c-5.4-6.1-11.1-7.2-17.2-1.9c-8.5,7.4-15.7,4.9-23.8,0.3 c-9.2-5.2-17.7-12.3-23.8-20.8c13.8-3.7,23.7-8.1,36.2-15.2c12.6-7.1,31.2-22.3,45.2-36.2c15.9-15.8,23.3-35.9,28.5-57.1 c1-4.3-0.9-7.3-4-9.6c-5.9-4.4-12-8.5-18.2-12.6c-2.8-1.8-5.9-3.2-10.9-5.9c4.6-1.1,8.5-1.6,11.3-1.8c6.5-0.3,11.9-0.7,18.5-0.7 c3.1,0,7.6,0.2,9.3,0.2c1.7,0,4.9,0.4,6.1-2.6c1.2-3.1-1.2-5.8-2.5-6.4c-6.2-3-5.7-8.8-6.4-13.9c-2.8-21.8,5.4-39.9,21-54.2 c19.9-18.3,43.6-24.5,70.3-18.6c10.4,2.3,18.5,8.1,25.5,16c9.7,11,14.7,24.1,18.7,37.9c-24.9,8.3-49.8,16.6-76,25.3 c-2.3-2.6-4.9-6-8-8.9c-6.4-6.2-11.5-5.1-14.8,3.3c-1.8,4.5-3,9.2-4.1,13.8c-1.1,4.3-0.9,8.6,2.8,11.8c3.5,3.1,7,0.4,10.3-0.9 c22.6-8.4,45-17.2,67.7-25.3c10.1-3.6,20.6-6.2,31-9.1c1.8-0.5,3.8-0.5,6.3-0.8c3.1,18.2,4.4,35.9-0.6,53.4 c-3.8,13.1-13.4,21-26,24.8c-8.9,2.7-18.3,4-27.4,5.7c-3.9,0.7-8.1,0.6-11.7,1.9c-1.8,0.6-3.6,3.6-3.7,5.7 c-0.1,1.4,2.6,3.9,4.3,4.2c3.6,0.6,7.4,0.4,11-0.2c9.5-1.6,19-3.2,28.3-5.7c15.3-4.1,26.8-13.3,34.3-27.8c5.4,0,12-0.1,18.4-0.2 c2.2,0,3.3,2.6,1.8,4.2C374.3,207.4,373.9,207.8,373.6,208.2z"></path><path d="M242.4,133c0.2-4.5-3.7-7.4-7.8-6.1c-4.5,1.5-8.9,3.5-13.2,5.7c-2.8,1.4-4.2,3.9-2.6,7.1c1.5,3,4.3,3.8,7.2,2.7 c4.5-1.7,8.9-3.6,13.2-5.7C241.3,135.6,242.5,134.8,242.4,133z"></path><path d="M300.1,113.3c3.6-1.4,9.6-3.6,7.7-9.4c-1.3-3.2-4.1-3.6-5.9-3.2c-4.6,1-9.1,3-13.1,5.3c-2.8,1.6-3,5.1-0.8,7.4 C292,117.4,296.4,114.7,300.1,113.3z"></path></svg>