<svg width="240" height="240" viewBox="0 0 24 24" fill="none" xmlns="http://www.w3.org/2000/svg">
  <path d="M19.1422 11.0477H18.1889V7.23885H19.14V4.38107H21.0444V7.23885H22V11.0477H21.0467V17.7144C21.0467 19.2922 19.7667 20.5722 18.1889 20.5722C16.6111 20.5722 15.3311 19.2922 15.3311 17.7144V13.9055H13.4267V18.6677H14.38V20.5722H2V18.6677H2.95333V4.38107C2.95333 3.8544 3.38 3.42773 3.90444 3.42773H12.4756C12.7284 3.42773 12.9709 3.52817 13.1497 3.70696C13.3284 3.88574 13.4289 4.12823 13.4289 4.38107V12.0011H15.3333C16.3844 12.0011 17.2378 12.8544 17.2378 13.9055V17.7144C17.2378 17.9672 17.3382 18.2097 17.517 18.3885C17.6958 18.5673 17.9383 18.6677 18.1911 18.6677C18.3163 18.6677 18.4403 18.6431 18.5559 18.5952C18.6716 18.5473 18.7767 18.477 18.8652 18.3885C18.9537 18.3 19.024 18.1949 19.0719 18.0792C19.1198 17.9636 19.1444 17.8396 19.1444 17.7144V11.0477H19.1422ZM8.66667 11.0477V7.23885L4.85778 12.9544H7.71556V16.7633L11.5244 11.0477H8.66667Z" fill="#1BB55C"/>
</svg>
