<svg width="1000" height="1000" viewBox="0 0 51 51" fill="none" xmlns="http://www.w3.org/2000/svg">
<path d="M21.3582 1.8584C21.3582 1.30611 21.8059 0.858398 22.3582 0.858398H28.6531C29.2054 0.858398 29.6531 1.30611 29.6531 1.8584V3.43669H21.3582V1.8584Z" fill="#161616"/>
<path d="M9.33472 8.50574C9.33472 7.50461 9.88473 6.58442 10.7665 6.11034V6.11034C19.9696 1.16228 31.0416 1.16228 40.2447 6.11034V6.11034C41.1265 6.58442 41.6765 7.50461 41.6765 8.50574V44.4315C41.6765 45.4063 41.1618 46.3087 40.3227 46.805V46.805C31.1839 52.2098 19.8273 52.2098 10.6885 46.805V46.805C9.84943 46.3087 9.33472 45.4063 9.33472 44.4315V8.50574Z" fill="#FAAD14"/>
<path d="M10.2329 24.3994C10.2329 23.8471 10.6806 23.3994 11.2329 23.3994H13.8264V30.3557H11.2329C10.6806 30.3557 10.2329 29.908 10.2329 29.3557V24.3994Z" fill="#161616"/>
<path d="M12.0297 22.1603C12.0297 21.8841 12.2535 21.6603 12.5297 21.6603H15.1232C15.3993 21.6603 15.6232 21.8841 15.6232 22.1603V31.5934C15.6232 31.8695 15.3993 32.0934 15.1232 32.0934H12.5297C12.2535 32.0934 12.0297 31.8695 12.0297 31.5934V22.1603Z" fill="#161616"/>
<path d="M35.3871 22.1603C35.3871 21.8841 35.6109 21.6603 35.8871 21.6603H38.4806C38.7568 21.6603 38.9806 21.8841 38.9806 22.1603V31.5934C38.9806 31.8695 38.7568 32.0934 38.4806 32.0934H35.8871C35.6109 32.0934 35.3871 31.8695 35.3871 31.5934V22.1603Z" fill="#161616"/>
<path d="M40.7773 24.3994C40.7773 23.8471 40.3296 23.3994 39.7773 23.3994H37.1838V30.3557H39.7773C40.3296 30.3557 40.7773 29.908 40.7773 29.3557V24.3994Z" fill="#161616"/>
<mask id="path-7-inside-1_883_51961" fill="white">
<path d="M12.9281 6.8785V6.8785C21.0765 4.06215 29.9344 4.06215 38.0828 6.8785V6.8785V46.8721V46.8721C29.9344 49.6884 21.0765 49.6884 12.9281 46.8721V46.8721V6.8785Z"/>
</mask>
<path d="M12.9281 6.8785V6.8785C21.0765 4.06215 29.9344 4.06215 38.0828 6.8785V6.8785V46.8721V46.8721C29.9344 49.6884 21.0765 49.6884 12.9281 46.8721V46.8721V6.8785Z" fill="white"/>
<path d="M37.5828 6.8785V46.8721H38.5828V6.8785H37.5828ZM13.4281 46.8721V6.8785H12.4281V46.8721H13.4281ZM37.9195 46.3995C29.8769 49.1793 21.134 49.1793 13.0914 46.3995L12.7648 47.3447C21.019 50.1976 29.9919 50.1976 38.2461 47.3447L37.9195 46.3995ZM13.0914 7.35107C21.134 4.57129 29.8769 4.57129 37.9195 7.35107L38.2461 6.40593C29.9919 3.553 21.019 3.553 12.7648 6.40593L13.0914 7.35107Z" fill="#E8E8E8" mask="url(#path-7-inside-1_883_51961)"/>
<path d="M12.9275 6.8785V6.8785C21.0759 4.06215 29.9338 4.06215 38.0822 6.8785V6.8785V15.0148V15.0148C30.199 12.5473 21.7637 12.4565 13.8292 14.7538L12.9275 15.0148V6.8785Z" fill="url(#paint0_linear_883_51961)"/>
<defs>
<linearGradient id="paint0_linear_883_51961" x1="12.9275" y1="15.0148" x2="38.0822" y2="15.0148" gradientUnits="userSpaceOnUse">
<stop stop-color="#61CF87"/>
<stop offset="0.0001" stop-color="#61CF87"/>
<stop offset="0.244318" stop-color="#2FEC70"/>
<stop offset="0.734457" stop-color="#30FE77"/>
<stop offset="1" stop-color="#61CF87"/>
<stop offset="1" stop-color="#61CF87"/>
</linearGradient>
</defs>
</svg>
