<svg width="1000" height="1000" viewBox="0 0 51 51" fill="none" xmlns="http://www.w3.org/2000/svg">
<path d="M21.3582 1.60498C21.3582 1.0527 21.8059 0.60498 22.3582 0.60498H28.6531C29.2054 0.60498 29.6531 1.0527 29.6531 1.60498V3.18327H21.3582V1.60498Z" fill="#161616"/>
<path d="M9.33472 8.25232C9.33472 7.25119 9.88473 6.331 10.7665 5.85692V5.85692C19.9696 0.908858 31.0416 0.908858 40.2447 5.85692V5.85692C41.1265 6.331 41.6765 7.25119 41.6765 8.25232V44.178C41.6765 45.1529 41.1618 46.0553 40.3227 46.5516V46.5516C31.1839 51.9563 19.8273 51.9563 10.6885 46.5516V46.5516C9.84943 46.0553 9.33472 45.1529 9.33472 44.178V8.25232Z" fill="#FAAD14"/>
<path d="M10.2329 24.146C10.2329 23.5937 10.6806 23.146 11.2329 23.146H13.8264V30.1023H11.2329C10.6806 30.1023 10.2329 29.6546 10.2329 29.1023V24.146Z" fill="#161616"/>
<path d="M12.0297 21.9069C12.0297 21.6307 12.2535 21.4069 12.5297 21.4069H15.1232C15.3993 21.4069 15.6232 21.6307 15.6232 21.9069V31.34C15.6232 31.6161 15.3993 31.84 15.1232 31.84H12.5297C12.2535 31.84 12.0297 31.6161 12.0297 31.34V21.9069Z" fill="#161616"/>
<path d="M35.3871 21.9069C35.3871 21.6307 35.6109 21.4069 35.8871 21.4069H38.4806C38.7568 21.4069 38.9806 21.6307 38.9806 21.9069V31.34C38.9806 31.6161 38.7568 31.84 38.4806 31.84H35.8871C35.6109 31.84 35.3871 31.6161 35.3871 31.34V21.9069Z" fill="#161616"/>
<path d="M40.7773 24.146C40.7773 23.5937 40.3296 23.146 39.7773 23.146H37.1838V30.1023H39.7773C40.3296 30.1023 40.7773 29.6546 40.7773 29.1023V24.146Z" fill="#161616"/>
<mask id="path-7-inside-1_883_52045" fill="white">
<path d="M12.9281 6.62508V6.62508C21.0765 3.80873 29.9344 3.80873 38.0828 6.62508V6.62508V46.6187V46.6187C29.9344 49.435 21.0765 49.435 12.9281 46.6187V46.6187V6.62508Z"/>
</mask>
<path d="M12.9281 6.62508V6.62508C21.0765 3.80873 29.9344 3.80873 38.0828 6.62508V6.62508V46.6187V46.6187C29.9344 49.435 21.0765 49.435 12.9281 46.6187V46.6187V6.62508Z" fill="white"/>
<path d="M37.5828 6.62508V46.6187H38.5828V6.62508H37.5828ZM13.4281 46.6187V6.62508H12.4281V46.6187H13.4281ZM37.9195 46.1461C29.8769 48.9259 21.134 48.9259 13.0914 46.1461L12.7648 47.0913C21.019 49.9442 29.9919 49.9442 38.2461 47.0913L37.9195 46.1461ZM13.0914 7.09765C21.134 4.31787 29.8769 4.31787 37.9195 7.09765L38.2461 6.15251C29.9919 3.29959 21.019 3.29959 12.7648 6.15251L13.0914 7.09765Z" fill="#E8E8E8" mask="url(#path-7-inside-1_883_52045)"/>
<path d="M12.9275 6.62508V6.62508C21.0759 3.80873 29.9338 3.80873 38.0822 6.62508V6.62508V14.7614V14.7614C30.199 12.2939 21.7637 12.2031 13.8292 14.5003L12.9275 14.7614V6.62508Z" fill="url(#paint0_linear_883_52045)"/>
<defs>
<linearGradient id="paint0_linear_883_52045" x1="12.9275" y1="14.7614" x2="38.0822" y2="14.7614" gradientUnits="userSpaceOnUse">
<stop stop-color="#61CF87"/>
<stop offset="0.0001" stop-color="#FF2621"/>
<stop offset="0.244318" stop-color="#FF312D"/>
<stop offset="0.734457" stop-color="#FF7875"/>
<stop offset="1" stop-color="#FF1914"/>
</linearGradient>
</defs>
</svg>
