<svg width="250" height="240" viewBox="0 0 25 24" fill="none" xmlns="http://www.w3.org/2000/svg">
  <path d="M12.3125 2C6.78965 2 2.3125 6.47715 2.3125 12C2.3125 17.5228 6.78965 22 12.3125 22C17.8353 22 22.3125 17.5228 22.3125 12C22.3125 6.47715 17.8353 2 12.3125 2Z" fill="#FA8C16"/>
  <path d="M7.68004 5.9383C8.53635 5.63387 9.52925 5.82435 10.2146 6.50974C10.9003 7.19533 11.0907 8.1886 10.7859 9.04508L18.3169 16.5762L16.8438 18.0493L9.31193 10.5185C8.45562 10.8229 7.46272 10.6324 6.77732 9.94711C6.09173 9.26148 5.90134 8.26821 6.20614 7.41173L7.75941 8.96498C8.16621 9.37181 8.82576 9.37181 9.23255 8.96498C9.63935 8.55818 9.63935 7.89863 9.23255 7.49184L7.68004 5.9383ZM14.8796 7.24631L17.0894 6.01869L18.0714 7.00079L16.8438 9.2105L15.6162 9.45601L14.143 10.9292L13.161 9.94711L14.6341 8.47393L14.8796 7.24631ZM9.96913 12.6478L11.4423 14.121L8.00494 17.5583C7.59814 17.9651 6.93859 17.9651 6.5318 17.5583C6.14893 17.1754 6.12641 16.5686 6.46423 16.1595L6.5318 16.0851L9.96913 12.6478Z" fill="white"/>
</svg>
